<svg xmlns="http://www.w3.org/2000/svg" width="20" height="30" viewBox="0 0 25.898 32.96">
  <g id="noun-clipboard-3357322" transform="translate(-157.5 -35)">
    <path id="Path_28969" data-name="Path 28969" d="M231.031,105h14.126a3.794,3.794,0,0,1,3.531,3.531V129.72a3.531,3.531,0,0,1-3.531,3.531H231.031a3.794,3.794,0,0,1-3.531-3.531V108.531A3.531,3.531,0,0,1,231.031,105Z" transform="translate(-65.291 -65.291)" fill="#000"/>
    <path id="Path_28970" data-name="Path 28970" d="M158.677,62.074A1.177,1.177,0,0,1,157.5,60.9V40.886A5.893,5.893,0,0,1,163.386,35h12.949a1.177,1.177,0,1,1,0,2.354H163.386a3.531,3.531,0,0,0-3.531,3.531V60.9a1.177,1.177,0,0,1-1.177,1.177Z" fill="#000"/>
  </g>
</svg>
