<svg xmlns="http://www.w3.org/2000/svg" width="125.5" height="26.072" viewBox="0 0 125.5 26.072">
  <g id="Group_42125" data-name="Group 42125" transform="translate(-262.119 -47.072)">
    <text id="Proceed" transform="translate(262.119 68.072)" fill="#494949" font-size="20" font-weight="700" letter-spacing="0.02em"><tspan x="0" y="0">Proceed</tspan></text>
    <path id="Path_28968" data-name="Path 28968" d="M76.543,19.98A13.036,13.036,0,1,0,89.977,6.546,13.035,13.035,0,0,0,76.543,19.98Zm10.211,3.066L89.5,20.3a1.017,1.017,0,0,0,0-1.445l-2.743-2.754A1.021,1.021,0,0,1,88.2,14.661l4.2,4.2a1.017,1.017,0,0,1,0,1.445l-4.2,4.188a1.021,1.021,0,1,1-1.445-1.445Z" transform="translate(285.01 40.532)" fill="#494949"/>
  </g>
</svg>
